<svg id="visual" viewBox="0 0 900 600" width="900" height="600" xmlns="http://www.w3.org/2000/svg" xmlns:xlink="http://www.w3.org/1999/xlink" version="1.1"><rect x="0" y="0" width="900" height="600" fill="#0066FF"></rect><path d="M0 419L21.5 434C43 449 86 479 128.8 493.5C171.7 508 214.3 507 257.2 498.3C300 489.7 343 473.3 385.8 464.7C428.7 456 471.3 455 514.2 465C557 475 600 496 642.8 490.8C685.7 485.7 728.3 454.3 771.2 448.3C814 442.3 857 461.7 878.5 471.3L900 481L900 601L878.5 601C857 601 814 601 771.2 601C728.3 601 685.7 601 642.8 601C600 601 557 601 514.2 601C471.3 601 428.7 601 385.8 601C343 601 300 601 257.2 601C214.3 601 171.7 601 128.8 601C86 601 43 601 21.5 601L0 601Z" fill="#6600FF" stroke-linecap="round" stroke-linejoin="miter"></path></svg>